<svg width="234" height="76" viewBox="0 0 234 76" fill="none" xmlns="http://www.w3.org/2000/svg">
<g filter="url(#filter0_d)">
<path d="M77 13.9695C76.2236 13.9456 75.4472 13.9118 74.6721 13.8796C71.938 13.7542 69.1972 13.6725 66.4564 13.647C66.5206 13.5257 66.4872 13.4465 66.2734 13.4564C65.1843 13.4547 64.1018 13.5636 63.0168 13.6156C62.7695 13.6313 62.5237 13.6486 62.2764 13.6651C62.2457 13.6659 62.215 13.6659 62.1842 13.6668C62.2591 13.5867 62.3219 13.5026 62.3673 13.4118C62.4141 13.2551 62.1308 13.3194 61.9811 13.3227C61.9744 13.3236 61.9691 13.3252 61.9624 13.326C61.7406 13.3434 61.5201 13.3615 61.2982 13.3788C61.0083 13.4003 60.717 13.4217 60.427 13.4432C60.1343 13.4415 59.839 13.4539 59.5463 13.4655C59.541 13.4663 59.537 13.4671 59.5316 13.4679C59.1027 13.4828 58.6737 13.4968 58.2461 13.5117C57.1917 13.5513 56.1374 13.6024 55.0857 13.6701C54.4349 13.7064 53.7881 13.7567 53.148 13.8359C52.7872 13.8978 52.4799 14.0422 52.1886 14.1832C51.9173 14.2088 51.6447 14.2344 51.3734 14.2608C49.6375 14.2905 47.9017 14.3367 46.1671 14.3944C45.9092 13.2971 45.6954 12.1957 45.4268 11.1001C44.9751 9.29163 44.4606 7.48564 44.2923 5.65655C44.1653 4.37693 44.0918 3.09401 44.1132 1.81192C44.1159 1.70301 44.1185 1.59411 44.1225 1.4852C44.0905 1.61061 44.0571 1.73601 44.0223 1.86142C43.7524 2.8663 43.4611 3.86954 43.1965 4.87607C43.1938 4.88763 43.1911 4.9 43.1871 4.91155C43.2459 3.66906 43.2526 2.42491 43.2686 1.18242C43.2767 0.986887 43.2847 0.79053 43.3127 0.595823C43.2098 0.833432 43.1256 1.07352 43.0428 1.3136C42.8036 2.03385 42.5911 2.7574 42.4 3.48343C42.3933 3.44052 42.3867 3.39845 42.3813 3.35555C42.3693 3.25572 42.3586 3.15506 42.3506 3.05524C42.1782 3.67648 42.0459 4.30185 41.9283 4.92805C41.8 5.6516 41.6864 6.37845 41.625 7.10613C41.6223 7.11933 41.6196 7.13253 41.6183 7.14491C41.5835 7.14078 41.5501 7.14408 41.5181 7.15728C41.4459 7.17791 41.3764 7.20183 41.3083 7.22741C41.3123 7.069 41.3163 6.9106 41.3189 6.75219C41.3123 5.36862 41.208 3.98587 41.2281 2.60229C41.2321 2.46204 41.2374 2.32096 41.2481 2.18153C41.1773 2.35891 41.1105 2.53629 41.0477 2.7145C40.874 3.21199 40.7256 3.71361 40.604 4.2177C40.5719 3.64431 40.5479 3.07174 40.584 2.49834C40.592 2.41089 40.6013 2.32261 40.6134 2.23516C40.5252 2.41996 40.4437 2.60642 40.3675 2.79288C40.1523 3.33409 39.98 3.88274 39.8477 4.43551C39.7782 3.89594 39.694 3.3572 39.6071 2.81928C39.5831 2.6518 39.559 2.48432 39.543 2.31683C39.4895 2.52227 39.4441 2.72852 39.4013 2.93478C39.094 4.51389 38.8962 6.11032 39.0592 7.70015C39.0819 7.85608 39.1047 8.01201 39.1314 8.16712C39.0926 8.17042 39.0552 8.18032 39.0191 8.19847C38.8481 8.25457 38.6917 8.32305 38.5434 8.3973C38.6076 7.76533 38.6677 7.13418 38.6984 6.50221C38.804 4.71849 38.6236 2.93643 38.4753 1.15519C38.4686 1.03474 38.4646 0.914284 38.4646 0.79383C38.4579 0.817756 38.4499 0.841682 38.4432 0.864782C38.2802 1.4027 38.1479 1.94392 38.0263 2.48514C38.0022 2.45214 37.9541 2.44141 37.89 2.44801C37.898 2.16173 37.91 1.87462 37.9287 1.58833C37.9381 1.48438 37.9514 1.38043 37.9688 1.2773C37.8672 1.49841 37.7764 1.72116 37.6908 1.94475C37.6534 2.0454 37.6173 2.14605 37.5813 2.24671C37.2552 2.02642 36.8049 1.89194 36.3438 1.78799C35.6463 1.61638 34.8231 1.48438 34.0908 1.64361C34.0414 1.65929 33.9946 1.67826 33.9465 1.69559C33.9518 1.57596 33.9612 1.45633 33.9732 1.3367C33.9839 1.25255 34.0013 1.16839 34.0226 1.08507C33.9505 1.21212 33.8877 1.34082 33.8302 1.47118C33.7901 1.57596 33.7527 1.68156 33.718 1.78634C33.5322 1.86637 33.3545 1.95547 33.1861 2.04787C33.1981 1.73189 33.2222 1.41673 33.2663 1.10157C33.2823 0.990187 33.3077 0.878808 33.3371 0.769079C33.2797 0.872207 33.2262 0.976161 33.1754 1.08094C33.1714 1.09002 33.1674 1.09909 33.1634 1.10817C33.2262 0.886233 33.2903 0.664301 33.3531 0.442368C33.3879 0.326864 33.424 0.21136 33.4601 0.0958557C33.3986 0.200634 33.3358 0.304588 33.277 0.410192C32.86 1.13539 32.4966 1.88287 32.2467 2.64107C32.1852 2.68562 32.1264 2.731 32.0689 2.7772C32.1411 2.14275 32.1825 1.50666 32.2213 0.870558C32.2373 0.63625 32.252 0.402767 32.2828 0.169283C32.2721 0.195684 32.26 0.222085 32.2493 0.247661C31.9059 1.08012 31.6534 1.92495 31.4783 2.77638C31.342 3.20704 31.2257 3.64513 31.1509 4.08487C31.0854 4.18305 31.0627 4.2903 31.0627 4.40003C31.0614 4.41736 31.06 4.43386 31.0587 4.45119C30.9905 3.92317 30.9344 3.39515 30.9264 2.86548C30.8288 3.14104 30.7527 3.41907 30.6899 3.69793C30.6377 3.52963 30.5843 3.36132 30.5282 3.19302C30.5028 3.81096 30.4787 4.43468 30.4747 5.06088C30.4493 5.30839 30.4293 5.55672 30.4106 5.80423C30.3985 6.06742 30.3945 6.33225 30.3999 6.59626C30.1901 6.76952 29.7972 7.13336 30.1674 7.11768C30.2542 7.10283 30.3371 7.08138 30.4173 7.05745C30.4253 7.19028 30.4346 7.32311 30.448 7.45594C30.2328 9.41374 30.4627 11.3839 30.917 13.326C31.0507 13.8969 31.2043 14.4662 31.3741 15.0338C28.9874 15.1559 26.5981 15.269 24.2207 15.4472C23.6795 15.4868 23.141 15.5305 22.6011 15.5784C21.3436 15.5569 20.0848 15.5478 18.8274 15.5528C18.3944 15.5495 17.9614 15.5437 17.5298 15.5247C17.63 15.5536 17.7316 15.5792 17.8318 15.6072C17.8118 15.6072 17.7931 15.6056 17.773 15.6056C15.981 15.6031 14.1984 15.7541 12.4411 15.9628C12.3582 15.9727 12.2767 15.9843 12.1939 15.9942C12.2072 15.9942 12.2219 15.995 12.2353 15.995C12.7257 16.0057 13.2121 16.0437 13.6999 16.0808C13.6478 16.0841 13.597 16.0874 13.5449 16.0907C12.3035 16.0148 11.0593 15.9645 9.80988 15.957C9.05352 15.9389 8.43213 15.924 7.82812 15.8943C7.77466 15.8869 7.72255 15.8844 7.67043 15.8861C7.65039 15.8853 7.62901 15.8844 7.60897 15.8828C7.60496 15.8861 7.59961 15.8886 7.5956 15.8919C7.44994 15.91 7.29894 15.9653 7.11051 16.0635C6.68423 16.2829 6.27265 16.528 5.99603 16.8283C5.94792 16.8654 5.91852 16.9405 5.99335 16.9611C6.12431 16.9842 6.25528 17.0123 6.38891 17.0296C6.3996 17.0312 6.41162 17.0321 6.42232 17.0321C6.75105 17.0791 7.08379 17.1187 7.41654 17.15C7.40986 17.1509 7.40183 17.1517 7.39515 17.1533C7.41252 17.1533 7.43123 17.1542 7.44861 17.155C7.45796 17.155 7.46731 17.1558 7.47666 17.1566C7.87355 17.1938 8.27445 17.2202 8.67535 17.2391C8.79962 17.2499 8.92524 17.2614 9.04951 17.2721C10.5208 17.4099 12.0068 17.4875 13.4955 17.4792C14.1115 17.4693 14.7275 17.4512 15.3422 17.4256C15.246 17.4388 15.1511 17.4528 15.0549 17.466C12.5667 17.4578 10.0758 17.617 7.64104 17.9396C8.20764 18.0015 8.89851 18.0724 9.63883 18.1392C8.62857 18.2061 7.62232 18.2944 6.62409 18.4C6.49447 18.4132 6.36619 18.4288 6.23656 18.4429C6.2967 18.4445 6.35683 18.447 6.41696 18.4486C6.75372 18.4651 7.08914 18.4866 7.42322 18.5097C7.2388 18.541 7.05573 18.5749 6.87399 18.6128C7.01831 18.6029 7.16264 18.5996 7.3083 18.598C7.74661 18.607 8.18225 18.6285 8.61789 18.6541C8.60185 18.6557 8.58448 18.6574 8.56844 18.6582C9.51723 18.7258 10.466 18.7918 11.4175 18.8463C11.1502 18.8735 10.8829 18.8999 10.6157 18.928C10.5796 18.9329 10.5422 18.9379 10.5061 18.942C9.28605 19.0039 8.07133 19.1012 6.87265 19.2233C6.8339 19.2275 6.79514 19.2316 6.75772 19.2357C6.9114 19.2522 7.06374 19.2679 7.21742 19.2836C7.5368 19.3215 7.85752 19.3562 8.17957 19.3892C7.32165 19.4585 6.46641 19.5377 5.60983 19.6161C5.18221 19.6557 4.75325 19.6944 4.32429 19.7316C4.38443 19.7349 4.44322 19.7398 4.50335 19.7431C5.10603 19.791 5.70738 19.8396 6.3114 19.885C6.30873 19.8858 6.30605 19.8858 6.30338 19.8867C6.32343 19.8875 6.34347 19.8883 6.36352 19.8891C6.878 19.9279 7.39248 19.9634 7.90696 19.9939C7.73859 20.1408 7.59827 20.3083 7.83881 20.3107C7.87489 20.3107 7.92834 20.3132 7.96576 20.314C8.00852 20.328 8.06198 20.3239 8.10875 20.3231C8.61521 20.3083 9.12034 20.2893 9.62547 20.2686C9.57602 20.3272 9.53192 20.3883 9.50653 20.451C9.38226 20.4964 9.26199 20.5492 9.14573 20.6028C8.97736 20.6729 8.81566 20.7496 8.65396 20.8239C7.99115 21.1448 7.39648 21.5219 6.86597 21.9253C6.81519 21.9616 6.6976 22.0548 6.58134 22.1621C5.37999 22.3048 4.18665 22.4698 3 22.6522C4.75191 22.8031 7.32566 22.7586 9.52391 22.639C8.67267 22.7677 7.83213 22.9186 7.00227 23.0869C6.94481 23.0993 6.88869 23.1117 6.83123 23.1232C6.9515 23.1191 7.07043 23.1166 7.1907 23.1175C7.43658 23.1216 7.68112 23.1274 7.927 23.1348C6.92209 23.2751 5.92119 23.4269 4.92029 23.5754C4.72117 23.6051 4.52207 23.6348 4.32295 23.6645C4.54612 23.6653 4.76929 23.6702 4.99111 23.6768C5.17018 23.6843 5.34791 23.6925 5.52698 23.6999C5.10604 23.7717 4.68643 23.8476 4.27084 23.9293C4.19734 23.9433 4.12518 23.9574 4.05168 23.9714C4.05703 23.9714 4.06237 23.9714 4.06772 23.9714C4.46594 23.9648 4.8655 23.978 5.26372 23.992C6.93546 24.0588 8.61254 24.11 10.2869 24.0613C10.0357 24.0984 9.78315 24.1413 9.66823 24.2931C9.66689 24.3006 9.6709 24.303 9.68293 24.3022C9.77513 24.3138 9.86868 24.3179 9.96222 24.3113C10.0865 24.3047 10.2094 24.2989 10.3337 24.2931C11.4936 24.2791 12.6562 24.2841 13.8175 24.2874C13.7213 24.308 13.6237 24.3286 13.5275 24.3501C13.76 24.327 13.9939 24.3072 14.2264 24.2882C14.2545 24.2882 14.2825 24.2882 14.3106 24.2882C17.2973 24.5151 20.2893 24.7222 23.2973 24.7906C27.2034 24.8723 31.1028 24.7073 34.9808 24.4342C35.3389 25.0126 35.7211 25.586 36.126 26.1519C36.404 26.7361 36.6873 27.3202 36.9839 27.901C37.3995 28.6922 37.8445 29.4776 38.3122 30.2573C38.8481 31.9758 39.4575 33.6853 40.2178 35.3708C40.6788 36.3196 41.2014 37.2568 41.7746 38.1825C42.0259 38.7336 42.3092 39.279 42.5965 39.8235C42.5123 39.7492 42.4294 39.6742 42.3439 39.6007C42.5778 40.0066 42.8196 40.4109 43.0802 40.8111C43.0588 40.8432 43.0375 40.8754 43.0201 40.9092C42.9987 41.0577 43.0789 41.2046 43.135 41.3473C43.2994 41.7499 43.4811 42.1493 43.6922 42.5436C43.7938 42.6839 43.9208 43.1162 44.2468 42.9982C44.3297 42.9834 44.4058 42.9603 44.478 42.9339C44.7105 43.4503 44.911 43.9717 45.1181 44.4907C45.1582 44.5988 45.2009 44.7085 45.2437 44.819C45.2891 45.2349 45.3319 45.6515 45.3733 46.0673C45.539 47.4451 45.8584 48.8138 46.254 50.1735C45.8103 51.4473 45.5444 52.7459 45.8838 54.0429C46.0215 53.2434 46.2005 52.4456 46.3609 51.647C46.3595 52.0488 46.3569 52.4506 46.3502 52.8524C46.3636 54.481 46.5774 56.1054 46.8353 57.725C46.8526 57.8421 46.8687 57.9601 46.8834 58.0773C46.8861 58.0674 46.8874 58.0566 46.8901 58.0467C47.0504 59.3082 47.2776 60.5672 47.5636 61.8204C47.589 61.9359 47.6157 62.0523 47.6424 62.1678C47.6598 62.0242 47.6772 61.8798 47.6959 61.7363C48.0393 58.937 48.3466 56.1277 48.2117 53.3185C48.201 53.066 48.1836 52.8144 48.1636 52.5619C48.1609 52.4134 48.1569 52.2649 48.1515 52.1156C48.1809 51.6189 48.2023 51.1223 48.2117 50.6256C48.2144 50.4796 48.2157 50.3344 48.217 50.1883C48.2812 50.3773 48.352 50.5646 48.4322 50.751C48.3734 51.6825 48.3319 52.6148 48.3253 53.5462C48.1128 56.2977 48.2959 59.0591 49.0469 61.7742C49.0977 62.2519 49.1605 62.7296 49.2366 63.2065C49.3141 63.6767 49.3997 64.1462 49.5159 64.6132C49.5253 64.6726 49.528 64.5752 49.5333 64.5571C49.8607 62.4508 50.156 60.3395 50.2242 58.2233C50.2456 58.2918 50.2656 58.3603 50.2883 58.4287C50.299 58.2307 50.3177 58.0327 50.3378 57.8355C50.442 57.0105 50.5436 56.1847 50.6264 55.3588C50.6892 55.6047 50.7547 55.8497 50.8228 56.0947C50.9779 58.2456 51.4416 60.3865 52.1792 62.4912C52.1819 62.4606 52.1832 62.4301 52.1859 62.3996C52.2273 62.5498 52.2701 62.6991 52.3155 62.8484C52.3289 62.893 52.3422 62.9375 52.3569 62.9821C52.393 62.572 52.4371 62.162 52.4759 61.752C52.5079 61.4186 52.5373 61.0845 52.5641 60.7504C52.6269 61.1076 52.695 61.4648 52.7712 61.8221C52.7806 61.8708 52.7912 61.9194 52.8006 61.9673C52.8059 61.9384 52.8113 61.9095 52.8166 61.8807C52.9623 63.3665 53.2322 64.8475 53.6331 66.3144C53.7414 65.5322 53.8456 64.7146 53.9351 63.8814C53.9685 63.7345 54.0033 63.5868 54.0354 63.44C54.0407 63.416 54.046 63.3921 54.0514 63.369C54.0527 63.3979 54.0554 63.4276 54.0567 63.4565C54.0634 63.4292 54.0714 63.4012 54.0795 63.374C54.2759 62.662 54.4536 61.9475 54.618 61.2322C54.6982 61.5787 54.7824 61.9252 54.8839 62.2692C54.8986 62.0391 54.9253 61.8089 54.9507 61.5787C55.0202 61.0201 55.0924 60.4616 55.1619 59.9022C55.1913 60.0582 55.218 60.2141 55.2487 60.37C55.2688 60.4715 55.2902 60.5738 55.3115 60.6753C55.3129 60.6654 55.3142 60.6555 55.3169 60.6456C55.3182 60.6761 55.3196 60.7066 55.3222 60.7372C55.385 61.7478 55.52 62.756 55.6416 63.7642C55.532 64.6321 55.5534 65.5091 55.6697 66.3746C55.6964 66.5891 55.7285 66.8036 55.7659 67.0181C55.7886 66.9092 55.814 66.7995 55.8394 66.6906C55.9222 66.3383 56.0091 65.986 56.0933 65.6337C56.1842 65.5916 56.2697 65.5446 56.3499 65.4935C56.3646 65.7954 56.3886 66.0966 56.4167 66.3977C56.6211 65.8466 56.8924 64.8293 57.0594 64.0365C57.161 63.7287 57.2599 63.421 57.3521 63.1124C57.4323 63.803 57.5205 64.4935 57.6154 65.1824C58.2421 62.3336 58.818 59.4806 59.3178 56.6227C59.6132 54.8976 59.9285 53.1675 59.8991 51.43C59.843 49.9054 59.5517 48.3815 59.0452 46.8899C58.6871 45.885 58.2488 44.8916 57.9053 43.8851C57.7583 43.4973 57.6287 43.1022 57.3548 42.7391C57.1035 41.6567 56.7842 40.5982 56.5022 39.7393C56.116 38.4614 55.7552 37.1809 55.2968 35.9112C55.2474 35.7445 55.1939 35.5705 55.1405 35.3939C55.2407 35.257 55.214 35.186 55.0777 35.1885C54.5712 33.545 53.8844 31.5534 52.8567 29.7994C52.8273 29.7194 52.7979 29.6393 52.7685 29.5601C52.7151 29.4182 52.4264 28.5915 52.0696 28.6105C51.6727 28.085 51.2251 27.5735 50.7587 27.0694C50.752 27.0553 50.744 27.0421 50.7373 27.0281C50.0785 25.7914 49.5253 24.5349 49.0402 23.2693C50.124 23.1587 51.205 23.0432 52.2848 22.917C53.569 22.7734 54.8519 22.6225 56.1334 22.4674C57.2559 22.3271 58.3918 22.2042 59.4768 21.9732C58.9878 22.0326 58.492 22.0623 57.9935 22.0812C58.1191 22.0284 58.2434 21.974 58.365 21.9171C59.1414 21.8065 59.9192 21.6959 60.6969 21.5903C60.2639 21.5961 59.8296 21.6044 59.3967 21.6143C59.5437 21.5854 59.6893 21.5557 59.8363 21.5268C63.7023 21.0764 67.5629 20.6119 71.4209 20.1366C71.9567 20.0715 72.4926 20.0063 73.0284 19.9461C72.9509 19.9461 72.8734 19.9452 72.7959 19.9444C71.5304 19.9254 70.265 19.9048 68.9995 19.8908C69.1451 19.8743 69.2908 19.8578 69.4351 19.8413C67.6899 19.786 65.938 19.7646 64.1927 19.8141C64.1954 19.8116 64.1981 19.8091 64.2007 19.8058C64.3117 19.7934 64.4226 19.7769 64.5295 19.7712C64.7713 19.7481 65.0012 19.6961 65.2284 19.6416C65.2992 19.6185 65.3687 19.5921 65.4355 19.5657C67.2475 19.4172 69.0542 19.2448 70.8596 19.0649C71.3594 19.0501 71.8592 19.0352 72.359 19.0212C70.6632 18.7951 68.946 18.6334 67.2181 18.5386C68.4449 18.3736 69.6703 18.2028 70.8984 18.0378C69.7117 18.046 68.5317 18.0939 67.3558 18.1722C67.5616 18.0138 67.7473 17.8464 67.8529 17.6533C68.6052 17.5989 69.3549 17.5345 70.1006 17.4644C69.8747 17.4421 69.6476 17.4215 69.4217 17.4025C69.8694 17.3687 70.3171 17.334 70.7647 17.3002C70.1206 17.249 69.4739 17.2086 68.8271 17.1806C69.6075 17.0857 70.3852 16.9883 71.163 16.8902C69.669 16.8596 68.1723 16.8695 66.6796 16.919C67.8235 16.8143 68.9647 16.6864 70.1006 16.5618C69.6877 16.5255 69.2747 16.4999 68.8618 16.4826C69.8948 16.4281 70.9278 16.3671 71.9607 16.3159C71.0948 16.207 70.2235 16.1377 69.3482 16.0981C69.407 16.0874 69.4645 16.0709 69.5166 16.0461C69.9242 15.8968 70.2636 15.684 70.5843 15.4711C70.7888 15.3201 71.02 15.1708 71.1162 14.9786C71.1282 14.9299 71.0935 14.9093 71.0146 14.9159C70.7941 14.9126 70.5736 14.9167 70.3531 14.9208C70.3505 14.9018 70.3425 14.882 70.3291 14.8622C70.1687 14.7962 69.987 14.7682 69.7999 14.7566C72.0382 14.5157 74.2699 14.2542 76.5109 14.0224C76.6726 14.0009 76.8356 13.9844 77 13.9695ZM19.2363 17.5716C19.2323 17.5741 19.2296 17.5774 19.2256 17.5799C19.1975 17.5956 19.1708 17.6121 19.1414 17.6277C18.8675 17.6063 18.5922 17.5865 18.3182 17.5692C18.6256 17.5683 18.9316 17.5683 19.2363 17.5716ZM16.0385 22.2083C16.5129 22.2066 16.9873 22.1992 17.4616 22.1819C17.6501 22.172 17.8438 22.1712 18.0269 22.1423C18.0256 22.1423 18.0242 22.1431 18.0229 22.1431C18.2086 22.1299 18.3997 22.1142 18.5828 22.0845C18.4772 22.1662 18.3784 22.2512 18.2928 22.3403C17.5044 22.2883 16.7146 22.2396 15.9235 22.2132C15.961 22.2116 15.9997 22.2099 16.0385 22.2083ZM18.1686 22.4905C18.1512 22.5144 18.1378 22.5391 18.1245 22.5639C17.9935 22.5622 17.8639 22.5598 17.7329 22.5581C17.8772 22.5367 18.0229 22.5136 18.1686 22.4905ZM19.6104 22.7875C19.5904 22.7974 19.569 22.8073 19.549 22.8172C19.3859 22.8972 19.2296 22.9813 19.0759 23.068C18.7258 23.096 18.3757 23.1257 18.0269 23.1571C17.9294 23.1653 17.8318 23.1744 17.7356 23.1827C17.5378 23.167 17.3387 23.1513 17.1409 23.1365C18.0082 23.002 18.8701 22.8551 19.728 22.7008C19.6879 22.7305 19.6492 22.7586 19.6104 22.7875ZM20.6581 16.6509C20.3534 16.6088 20.0461 16.5725 19.7361 16.5436C19.7695 16.5428 19.8015 16.5412 19.8349 16.5403C20.1236 16.575 20.4096 16.6055 20.6942 16.6327C20.6822 16.6377 20.6701 16.6443 20.6581 16.6509ZM54.9668 44.2308C54.9908 44.2935 55.0149 44.357 55.0403 44.4197C55.0697 44.5295 55.1285 44.6408 55.1271 44.7506C55.1445 44.8487 55.1418 44.9478 55.1418 45.0468C55.1418 45.0567 55.1405 45.0666 55.1392 45.0765C55.0911 45.1119 55.0456 45.1491 55.0002 45.1854C54.9334 44.706 54.8612 44.2258 54.7864 43.7473C54.8478 43.909 54.9093 44.0699 54.9668 44.2308ZM53.9819 53.9967C53.9578 54.2821 53.9405 54.5676 53.9298 54.8531C53.867 54.2953 53.7948 53.7376 53.7106 53.1807C53.7093 53.1708 53.7093 53.1609 53.708 53.151C53.7534 53.1304 53.7988 53.1089 53.8429 53.0875C53.8857 53.3911 53.9325 53.6939 53.9819 53.9967ZM53.7521 44.329C53.744 44.4148 53.736 44.5014 53.728 44.5872C53.6625 44.3463 53.5917 44.1211 53.5182 43.8975C53.5957 44.041 53.6746 44.1846 53.7521 44.329ZM53.5356 46.6226C53.5516 46.6094 53.569 46.5962 53.5864 46.5821C53.581 46.6919 53.577 46.8016 53.5717 46.9121C53.5463 46.927 53.5182 46.9402 53.4928 46.955C53.4741 46.8907 53.4541 46.8255 53.434 46.7595C53.4287 46.7422 53.4247 46.724 53.4206 46.7059C53.4581 46.6778 53.4982 46.6506 53.5356 46.6226ZM52.2246 52.9085C52.2474 52.8953 52.2701 52.8812 52.2928 52.8672C52.3088 53 52.3329 53.1329 52.373 53.2632C52.3703 53.3053 52.401 53.3301 52.4465 53.3416C52.4091 53.6097 52.3756 53.8779 52.3449 54.146C52.3142 53.9678 52.2848 53.7896 52.2514 53.6114C52.2126 53.3944 52.1699 53.1774 52.1298 52.9604C52.1632 52.9431 52.1939 52.9258 52.2246 52.9085ZM49.6776 51.6618C49.7685 51.8697 49.8594 52.0793 49.9623 52.2856C49.9382 52.3928 49.9141 52.5001 49.8901 52.6073C49.8741 52.6742 49.8607 52.741 49.8473 52.807C49.7885 52.4275 49.7244 52.0488 49.6522 51.6709C49.6603 51.6676 49.6696 51.6651 49.6776 51.6618ZM49.5119 51.7221C49.556 51.7064 49.6001 51.6907 49.6442 51.6742C49.6001 51.963 49.556 52.2517 49.5133 52.5413C49.4905 52.4349 49.4678 52.3293 49.4438 52.2237C49.417 52.0678 49.3903 51.9118 49.3596 51.7567C49.4117 51.746 49.4625 51.7353 49.5119 51.7221ZM47.9471 28.0957C47.9498 28.1427 47.9524 28.1898 47.9551 28.2368C47.7333 27.7946 47.5074 27.3532 47.2776 26.9126C47.3163 26.9737 47.3551 27.0355 47.3939 27.0966C47.5582 27.3515 47.7266 27.6048 47.8923 27.8597C47.907 27.8861 47.9217 27.9134 47.9377 27.9431C48.0005 28.0569 48.0674 28.1691 48.1342 28.2822C48.2103 28.547 48.2879 28.8085 48.3667 29.0701C48.3026 28.9381 48.2371 28.8061 48.1716 28.674C48.1048 28.4826 48.038 28.2921 47.9738 28.1007C47.9631 28.0644 47.9524 28.0281 47.9431 27.9926C47.9444 28.0272 47.9458 28.0619 47.9471 28.0957ZM48.1997 32.0674C48.2518 32.1392 48.3052 32.2101 48.3573 32.2819C48.368 32.3743 48.3814 32.4659 48.3921 32.5583C48.3667 32.4997 48.344 32.4411 48.3186 32.3826C48.2584 32.2439 48.193 32.1062 48.1275 31.9684C48.1515 32.0006 48.1756 32.0344 48.1997 32.0674ZM43.2259 20.0211C43.2432 20.0162 43.2606 20.0121 43.2767 20.0063C43.3314 20.1399 43.3889 20.2736 43.4464 20.4073C43.4384 20.413 43.4303 20.4188 43.4236 20.4246C43.3568 20.2901 43.2914 20.1556 43.2259 20.0211ZM42.523 12.2469C42.5497 12.3055 42.5778 12.364 42.6058 12.4226C42.6112 12.5026 42.6152 12.5827 42.6205 12.6619C42.6259 12.7411 42.6325 12.8211 42.6379 12.9003C42.5844 12.9119 42.5323 12.9259 42.4842 12.9432C42.4829 12.9284 42.4802 12.9127 42.4789 12.8978C42.4922 12.6817 42.5083 12.4647 42.523 12.2469ZM39.4615 9.42281C39.4882 9.48386 39.5163 9.54492 39.5457 9.60597C39.5163 9.62082 39.4855 9.63484 39.4561 9.6497C39.4414 9.53832 39.4294 9.42199 39.416 9.30318C39.4307 9.34278 39.4454 9.38239 39.4615 9.42281ZM39.4748 13.0232C39.4681 12.9069 39.4628 12.7914 39.4588 12.6751C39.4601 12.6767 39.4601 12.6784 39.4615 12.68C39.4655 12.7947 39.4695 12.9086 39.4748 13.0232ZM38.4058 11.4738C38.6022 11.4012 38.7759 11.3014 38.943 11.2041C38.967 11.2552 38.9871 11.2973 39.0018 11.3229C39.0232 11.3905 39.0646 11.4549 39.102 11.52C39.0993 11.5357 39.0966 11.5514 39.094 11.5671C39.0699 11.5357 39.0485 11.5027 39.0245 11.4714C39.0405 11.5349 39.0606 11.5984 39.0779 11.6628C39.0766 11.6751 39.0739 11.6867 39.0713 11.6991C39.0191 12.3071 39.1514 12.9226 39.4588 13.5009C39.4735 13.5265 39.4882 13.5521 39.5029 13.5777C39.5203 13.8375 39.5483 14.0966 39.6085 14.3532C39.6272 14.4258 39.6432 14.4976 39.6619 14.5702C39.6258 14.5718 39.5911 14.5735 39.555 14.5751C39.3733 14.2567 39.1929 13.9374 39.0098 13.6189C38.943 13.5009 38.8748 13.3838 38.808 13.2666C38.6864 12.949 38.5594 12.6314 38.4258 12.3154C38.3937 12.2312 38.359 12.1471 38.3216 12.0629C38.3162 11.8872 38.3122 11.7123 38.3136 11.5365C38.3443 11.5167 38.3764 11.4961 38.4058 11.4738ZM36.6271 3.86706C36.6325 3.89017 36.6378 3.91079 36.6432 3.92647C36.702 4.16985 36.7648 4.41323 36.8329 4.65497C36.8035 4.76965 36.7755 4.88433 36.7487 4.999C36.7487 4.999 36.7474 4.999 36.7474 4.99983C36.722 4.62197 36.6819 4.24493 36.6245 3.86871C36.6245 3.86789 36.6258 3.86789 36.6271 3.86706ZM36.5122 12.4284C36.5323 12.43 36.5523 12.4292 36.5723 12.4267C36.5911 12.718 36.6191 13.0092 36.6605 13.3005C36.722 13.7757 36.8209 14.2492 36.9572 14.7179C36.9385 14.7187 36.9198 14.7203 36.9011 14.7212C36.873 14.6593 36.8436 14.5974 36.8156 14.5363C36.6245 14.1519 36.4334 13.7674 36.2423 13.383C36.126 13.175 36.0458 12.9498 35.84 12.7708C36.0806 12.6718 36.3011 12.5488 36.5122 12.4284ZM35.9055 3.82086C35.8467 4.30186 35.8093 4.7845 35.8026 5.26631C35.7866 5.27374 35.7719 5.28034 35.7558 5.28777C35.7679 4.8373 35.7639 4.38601 35.7545 3.93554C35.8066 3.89677 35.8588 3.85799 35.9055 3.82086ZM34.4222 7.90558C34.4476 7.96003 34.4797 8.01366 34.5318 8.05409C34.5331 8.09204 34.5331 8.12917 34.5345 8.16712C34.3928 8.21084 34.2365 8.27437 34.0734 8.3511C34.0534 8.27107 34.032 8.19187 34.012 8.11267C34.1536 8.04831 34.2899 7.97819 34.4222 7.90558ZM32.3202 4.54524C32.3375 4.54111 32.3563 4.53699 32.3736 4.53204C32.371 4.58236 32.3696 4.63187 32.3669 4.68219C32.3389 4.69787 32.3122 4.71437 32.2854 4.73087C32.2975 4.66899 32.3095 4.60712 32.3202 4.54524ZM45.9333 39.307C45.8878 39.293 45.8397 39.2848 45.7916 39.2782C45.662 38.9943 45.5297 38.7105 45.3867 38.4284C45.2785 38.2172 45.1769 38.0126 45.0793 37.8096C45.1141 37.869 45.1462 37.9284 45.1809 37.9878C45.4428 38.4358 45.7047 38.883 45.976 39.3285C45.9613 39.3219 45.9493 39.3136 45.9333 39.307ZM46.0348 29.6187C45.9961 29.5362 45.956 29.4529 45.9159 29.3704C45.8197 29.0354 45.7194 28.7004 45.6192 28.3663C45.7502 28.5684 45.8865 28.7698 46.0201 28.9711C46.2019 29.6707 46.4223 30.367 46.6896 31.0559C46.4785 30.5757 46.2607 30.0964 46.0348 29.6187ZM46.7217 47.9583C46.6843 47.8494 46.6468 47.7413 46.6068 47.6332C46.6001 47.3709 46.5894 47.1093 46.5747 46.8478C46.6108 46.8329 46.6468 46.8181 46.6829 46.8016C46.7097 46.8428 46.7364 46.8841 46.7631 46.9262C46.7471 47.2694 46.7324 47.6142 46.7217 47.9583ZM48.4389 35.2429C48.0179 34.2125 47.5996 33.182 47.164 32.1532C47.5809 32.9923 48.0901 33.8132 48.674 34.6143C48.7769 35.2957 48.8892 35.9772 49.0175 36.657C48.8197 36.1859 48.6286 35.714 48.4389 35.2429Z" fill="#F83A53"/>
</g>
<g filter="url(#filter1_d)">
<path d="M24.4677 36.1704C24.3464 36.5514 23.9395 36.7419 23.2468 36.7419C22.5715 36.7419 21.8961 36.5081 21.2207 36.0405C21.7576 34.5859 22.8226 32.1702 24.4157 28.7934C26.0262 25.3993 27.0998 22.871 27.6367 21.2086C27.6886 21.0008 27.7146 20.8276 27.7146 20.6891C27.7146 20.5332 27.654 20.3254 27.5328 20.0657C27.4115 19.8059 27.2817 19.5981 27.1431 19.4422L26.9613 19.2085L27.0652 18.689C28.6064 18.2734 30.4333 18.0656 32.546 18.0656L34.5461 18.1695C34.7193 18.3253 34.8925 18.7323 35.0656 19.3903C35.2388 20.0483 35.3514 21.0354 35.4033 22.3515C35.4553 23.6676 35.4899 26.1352 35.5072 29.7545C35.5245 32.5425 35.8709 33.9365 36.5462 33.9365C36.7194 33.9365 37.0917 33.8499 37.6632 33.6768L37.9229 33.5988L38.4684 35.0794C37.7584 35.6163 36.9272 36.0405 35.9748 36.3522C35.0223 36.6639 34.1651 36.8198 33.4032 36.8198C32.2949 36.8198 31.533 36.4821 31.1174 35.8068C30.7191 35.1141 30.5199 34.2309 30.5199 33.1573C30.5199 32.0663 30.5286 31.313 30.5459 30.8974C30.2169 30.8281 29.5762 30.7935 28.6237 30.7935C27.6713 30.7935 26.8487 30.8887 26.1561 31.0792C25.5153 32.7936 24.9525 34.4907 24.4677 36.1704ZM30.6498 28.7155C30.7364 27.2089 30.7797 25.6937 30.7797 24.1698C30.7797 22.6459 30.6931 21.5376 30.5199 20.8449C30.3468 20.8449 30.2255 20.8622 30.1563 20.8969C29.7753 22.0571 28.7536 24.6633 27.0912 28.7155H30.6498ZM44.4563 36.6639H44.1446C44.1446 35.6596 44.6295 33.0014 45.5993 28.6895C46.569 24.3776 47.0539 21.9965 47.0539 21.5463C47.0539 20.8189 46.7855 20.1263 46.2486 19.4682L45.9889 19.1305L46.0668 18.611C47.0885 18.2647 48.9587 18.0915 51.6775 18.0915C51.9546 18.7149 52.1018 19.4509 52.1191 20.2994C54.1452 18.8102 55.8769 18.0656 57.3142 18.0656C58.9593 18.0656 59.9377 18.7755 60.2494 20.1955C62.2062 18.7755 63.9119 18.0656 65.3665 18.0656C66.3536 18.0656 67.1588 18.3426 67.7823 18.8968C68.4057 19.4336 68.7174 20.2215 68.7174 21.2605C68.7174 22.2822 68.3364 24.239 67.5745 27.131C66.8298 30.0056 66.4575 32.049 66.4575 33.2612C66.4575 33.7114 66.5528 33.9365 66.7432 33.9365C67.1069 33.9365 67.5485 33.8326 68.068 33.6248L68.6135 35.1054C67.003 36.2483 65.4098 36.8198 63.834 36.8198C63.0894 36.8198 62.4919 36.5947 62.0417 36.1444C61.5915 35.6942 61.3663 35.0361 61.3663 34.1703C61.3663 33.2871 61.7213 31.3823 62.4313 28.4557C63.1586 25.5118 63.5223 23.7195 63.5223 23.0788C63.5223 22.4381 63.4444 22.0138 63.2885 21.806C63.1327 21.5809 62.8296 21.4683 62.3794 21.4683C61.9291 21.4683 61.2191 21.7973 60.2494 22.4554C60.1282 23.252 59.8598 24.5421 59.4442 26.3257C58.3532 30.8801 57.8077 34.1097 57.8077 36.0146C56.9592 36.4648 55.4959 36.6899 53.4179 36.6899H52.7165C52.7165 35.0968 53.1235 32.6031 53.9374 29.209C54.7513 25.8149 55.1582 23.7801 55.1582 23.1048C55.1582 22.4294 55.0803 21.9878 54.9244 21.78C54.7859 21.5722 54.4829 21.4683 54.0153 21.4683C53.5651 21.4683 52.8464 21.806 51.8593 22.4814C51.7035 23.3472 51.3831 24.7845 50.8982 26.7933C49.7726 31.4862 49.2098 34.5513 49.2098 35.9886C48.4479 36.4388 46.8634 36.6639 44.4563 36.6639ZM73.8623 36.8198C72.5116 36.8198 71.4466 36.3955 70.6674 35.547C69.8881 34.6812 69.4985 33.469 69.4985 31.9104C69.4985 30.0056 70.0613 28.3951 71.1869 27.079C72.3125 25.7456 73.7931 25.0789 75.6287 25.0789L76.7975 25.1828C77.2132 25.0616 77.6028 25.001 77.9664 25.001C78.8323 25.001 79.447 25.2954 79.8107 25.8841C80.1917 26.4729 80.4081 27.3128 80.4601 28.4038C81.1874 28.3691 81.8801 28.2566 82.5381 28.0661L82.9018 27.9622C83.023 28.0834 83.1096 28.4471 83.1615 29.0531L83.1875 29.3389C82.4082 29.7372 81.4558 30.0489 80.3302 30.274C79.9492 32.1096 79.1959 33.6595 78.0703 34.9236C76.9447 36.1877 75.5421 36.8198 73.8623 36.8198ZM74.3818 31.8065C74.3818 33.417 74.7888 34.2223 75.6027 34.2223C76.1741 34.2223 76.7543 33.8586 77.343 33.1313C77.9491 32.404 78.3647 31.5208 78.5898 30.4818C76.8235 30.4818 75.9404 29.6333 75.9404 27.9362C75.9404 27.6418 75.9663 27.3388 76.0183 27.0271C75.8451 27.0271 75.7152 27.053 75.6287 27.105C75.3343 27.4167 75.0485 28.0488 74.7715 29.0012C74.5117 29.9363 74.3818 30.8714 74.3818 31.8065ZM81.4892 36.6639H81.2813C81.2294 36.4215 81.2034 36.0492 81.2034 35.547C81.2034 35.0275 81.4112 33.7027 81.8268 31.5728C82.2598 29.4255 82.4762 28.2133 82.4762 27.9362C82.4762 27.6418 82.3983 27.3474 82.2424 27.053C82.0866 26.7413 81.9307 26.5076 81.7749 26.3517L81.5411 26.1179L81.5931 25.7283C82.6321 25.3993 84.3551 25.2348 86.7622 25.2348C86.9873 25.6677 87.1258 26.1785 87.1778 26.7673C88.2341 25.5898 89.1692 25.001 89.9831 25.001C91.0394 25.001 91.6196 25.8928 91.7235 27.6765C91.6888 27.7111 91.6455 27.7717 91.5936 27.8583C91.5416 27.9275 91.4204 28.0574 91.2299 28.2479C91.0394 28.4384 90.8403 28.6116 90.6325 28.7674C90.0437 29.1657 89.4203 29.3995 88.7623 29.4688C88.7449 29.4688 88.6237 29.2783 88.3986 28.8973C88.1908 28.5163 88.009 28.3258 87.8531 28.3258C87.7146 28.3258 87.4462 28.4817 87.0479 28.7934C86.9959 29.1051 86.892 29.6333 86.7362 30.3779C86.5976 31.1225 86.4851 31.7373 86.3985 32.2221C86.1388 33.5036 86.0089 34.5772 86.0089 35.4431L86.0348 36.2224C85.2729 36.5167 83.7577 36.6639 81.4892 36.6639ZM90.9079 31.8065C90.9079 29.6592 91.5573 27.9882 92.856 26.7933C94.1721 25.5984 95.7913 25.001 97.7134 25.001C99.0468 25.001 100.112 25.2954 100.908 25.8841C101.722 26.4556 102.129 27.2262 102.129 28.196C102.129 28.906 101.913 29.538 101.48 30.0922C101.047 30.6463 100.519 31.0706 99.8954 31.365C98.5793 31.9537 97.4364 32.3087 96.4666 32.4299L95.8172 32.5079C96.0077 33.6508 96.5792 34.2223 97.5316 34.2223C97.9472 34.2223 98.4061 34.1357 98.9083 33.9625C99.4105 33.772 99.8088 33.5815 100.103 33.391L100.545 33.1313L101.376 34.2482C101.376 34.2482 101.281 34.3435 101.09 34.534C100.986 34.6379 100.735 34.8457 100.337 35.1574C99.956 35.4518 99.549 35.7115 99.1161 35.9366C98.7005 36.1617 98.1637 36.3609 97.5056 36.5341C96.8476 36.7245 96.1895 36.8198 95.5315 36.8198C94.0596 36.8198 92.9166 36.3955 92.1027 35.547C91.3062 34.6812 90.9079 33.4343 90.9079 31.8065ZM95.7133 30.7935C96.2155 30.7242 96.7177 30.3173 97.2199 29.5727C97.7221 28.8107 97.9732 28.1786 97.9732 27.6765C97.9732 27.1569 97.826 26.8972 97.5316 26.8972C97.0987 26.8972 96.7004 27.2349 96.3367 27.9102C95.9731 28.5856 95.7653 29.5467 95.7133 30.7935Z" fill="#FDFFFC"/>
</g>
<g filter="url(#filter2_d)">
<path d="M14.0807 52.2127C12.4661 52.2127 10.8514 51.9302 9.2367 51.365C8.06606 51.8091 6.71376 52.0311 5.17982 52.0311C4.8367 52.0311 4.52385 52.0109 4.24128 51.9705C4.24128 50.7595 4.79633 47.7724 5.90642 43.0091C7.01651 38.2458 7.57156 35.5513 7.57156 34.9256C7.57156 34.2999 7.45046 33.7448 7.20826 33.2604C6.98624 32.776 6.75413 32.4127 6.51193 32.1705L6.1789 31.8375L6.3 31.0806C6.80459 30.9797 7.96514 30.8384 9.78165 30.6568C11.6183 30.4549 13.1725 30.354 14.444 30.354C19.3688 30.354 21.8312 31.9384 21.8312 35.1072C21.8312 36.5806 21.3266 37.7815 20.3174 38.71C19.3284 39.6384 18.0972 40.2641 16.6239 40.587C18.0165 40.7485 19.1872 41.2531 20.1358 42.1008C21.0844 42.9283 21.5587 44.1091 21.5587 45.643C21.5587 47.5403 20.8523 49.1146 19.4395 50.3659C18.0266 51.5971 16.2404 52.2127 14.0807 52.2127ZM13.0514 41.6164C12.6881 41.6164 12.2844 41.6467 11.8404 41.7072C11.0532 45.1586 10.5486 47.6614 10.3266 49.2155C10.7706 49.4779 11.3761 49.6091 12.1431 49.6091C13.3138 49.6091 14.1917 49.1247 14.7771 48.1558C15.3624 47.187 15.655 46.0971 15.655 44.8861C15.655 43.6549 15.433 42.8072 14.989 42.343C14.5651 41.8586 13.9193 41.6164 13.0514 41.6164ZM12.6578 39.4063C13.5459 39.4063 14.2422 39.0733 14.7468 38.4072C15.655 37.2568 16.1092 35.9852 16.1092 34.5925C16.1092 33.1797 15.6248 32.4733 14.656 32.4733L13.6569 32.5944C13.6367 33.3815 13.2128 35.6522 12.3853 39.4063H12.6578ZM22.7049 46.3696C22.7049 43.8669 23.4618 41.9192 24.9756 40.5265C26.5095 39.1338 28.3967 38.4375 30.637 38.4375C32.1912 38.4375 33.4324 38.7806 34.3609 39.4669C35.3095 40.1329 35.7838 41.0311 35.7838 42.1614C35.7838 42.9889 35.5315 43.7256 35.0269 44.3714C34.5223 45.0173 33.9068 45.5118 33.1801 45.8549C31.6462 46.5412 30.3141 46.9549 29.1838 47.0962L28.4269 47.187C28.649 48.5192 29.315 49.1852 30.4251 49.1852C30.9095 49.1852 31.4444 49.0843 32.0297 48.8825C32.615 48.6604 33.0792 48.4384 33.4223 48.2164L33.937 47.9136L34.9058 49.2155C34.9058 49.2155 34.7948 49.3265 34.5728 49.5485C34.4517 49.6696 34.159 49.9118 33.6948 50.2751C33.2508 50.6182 32.7765 50.921 32.2719 51.1834C31.7875 51.4458 31.1618 51.6779 30.3948 51.8797C29.6279 52.1017 28.8609 52.2127 28.0939 52.2127C26.3783 52.2127 25.0462 51.7182 24.0976 50.7292C23.1691 49.7201 22.7049 48.2669 22.7049 46.3696ZM28.3058 45.1889C28.8912 45.1081 29.4765 44.6338 30.0618 43.7659C30.6471 42.8779 30.9398 42.1412 30.9398 41.5558C30.9398 40.9503 30.7682 40.6476 30.4251 40.6476C29.9205 40.6476 29.4563 41.0412 29.0324 41.8283C28.6086 42.6155 28.3664 43.7357 28.3058 45.1889ZM50.9683 39.588C50.5444 40.8999 50.1811 42.4641 49.8784 44.2806C49.5756 46.0769 49.4242 47.3384 49.4242 48.065C49.4242 48.7714 49.5352 49.1247 49.7573 49.1247L51.271 48.7008L51.816 50.2146C51.1701 50.7192 50.3426 51.1834 49.3334 51.6072C48.3444 52.0109 47.4664 52.2127 46.6995 52.2127C45.3875 52.2127 44.56 51.6476 44.2169 50.5173C42.6224 51.6476 41.2095 52.2127 39.9784 52.2127C38.7673 52.2127 37.8288 51.7687 37.1628 50.8806C36.4967 49.9925 36.1637 48.721 36.1637 47.0659C36.1637 44.7852 36.749 42.7769 37.9196 41.0412C39.0903 39.3054 40.6343 38.4375 42.5517 38.4375C43.6013 38.4375 44.671 38.7302 45.7609 39.3155C45.9224 38.9522 46.0536 38.6898 46.1545 38.5283C47.6077 38.5283 49.2123 38.8815 50.9683 39.588ZM41.8554 46.7026C41.8554 47.7118 41.9261 48.3476 42.0673 48.61C42.2086 48.8724 42.471 49.0036 42.8545 49.0036C43.238 49.0036 43.6114 48.8522 43.9747 48.5494C44.0554 46.2081 44.4389 43.7558 45.1251 41.1925C44.8224 41.0109 44.4692 40.9201 44.0655 40.9201C43.682 40.9201 43.3288 41.1421 43.0059 41.5861C42.7031 42.0302 42.471 42.5852 42.3095 43.2513C42.0068 44.5228 41.8554 45.6733 41.8554 46.7026ZM52.429 49.3971C52.429 48.5494 52.6914 47.1568 53.2162 45.2192C53.7612 43.2815 54.0336 42.0907 54.0336 41.6467C54.0336 41.2026 53.6703 40.5568 52.9437 39.7091L53.0043 39.2549C54.841 38.8513 56.9905 38.6494 59.4529 38.6494C59.6144 38.9925 59.6951 39.5375 59.6951 40.2843C59.6951 41.0311 59.4125 42.4439 58.8474 44.5228C58.3024 46.6017 58.03 47.8329 58.03 48.2164C58.03 48.7412 58.2823 49.0036 58.7868 49.0036C59.13 49.0036 59.5639 48.8724 60.0887 48.61C60.1492 48.287 60.3309 47.4393 60.6336 46.0669C61.3401 43.0192 61.6933 40.7384 61.6933 39.2247C62.6217 38.821 64.2061 38.6192 66.4465 38.6192H67.2639C67.2639 39.5274 66.9914 41.3036 66.4465 43.9476C65.9217 46.5916 65.6492 48.1155 65.629 48.5192C65.629 48.9228 65.7199 49.1247 65.9015 49.1247L67.385 48.7311L67.93 50.2448C67.3446 50.7091 66.4969 51.1531 65.3868 51.5769C64.2768 52.0008 63.2979 52.2127 62.4501 52.2127C61.1988 52.2127 60.4217 51.7081 60.119 50.699C58.4437 51.7081 56.8391 52.2127 55.3052 52.2127C53.3878 52.2127 52.429 51.2742 52.429 49.3971ZM79.0407 41.132L76.4371 40.9201C75.6297 44.5329 75.1857 46.632 75.105 47.2173C75.0444 47.8026 75.0141 48.287 75.0141 48.6705C75.0141 49.0338 75.1352 49.2155 75.3774 49.2155C75.66 49.2155 76.1949 49.0338 76.982 48.6705L77.7086 50.1237C77.0628 50.7091 76.2453 51.2036 75.2563 51.6072C74.2673 52.0109 73.3086 52.2127 72.3802 52.2127C71.4719 52.2127 70.7453 51.9806 70.2004 51.5164C69.6554 51.032 69.3829 50.3558 69.3829 49.488C69.3829 48.6201 69.6352 47.2274 70.1398 45.31C70.6444 43.3925 70.9774 41.9696 71.1389 41.0412C70.6545 41.0815 69.938 41.1522 68.9894 41.2531C68.9086 40.8292 68.8683 40.4357 68.8683 40.0724C68.8683 39.6889 68.9187 39.265 69.0196 38.8008H71.4417C71.4618 38.5384 71.4719 37.6604 71.4719 36.1669L71.4114 34.9256C73.3692 34.2797 75.2361 33.9568 77.0123 33.9568C77.1536 34.2797 77.2242 34.8448 77.2242 35.6522C77.2242 36.4393 77.093 37.4889 76.8306 38.8008H79.5554C79.5554 39.6283 79.3839 40.4054 79.0407 41.132ZM86.1521 40.4962C86.1521 41.3843 85.8998 42.7669 85.3952 44.6439C84.8906 46.5008 84.6383 47.7118 84.6383 48.2769C84.6383 48.8421 84.7493 49.1247 84.9714 49.1247C85.1934 49.1247 85.5971 49.0237 86.1824 48.8219L86.4549 48.7008L86.9998 50.2146C86.3136 50.7393 85.4558 51.2036 84.4264 51.6072C83.4172 52.0109 82.4989 52.2127 81.6714 52.2127C80.8438 52.2127 80.1879 51.9806 79.7035 51.5164C79.2393 51.0522 79.0071 50.3861 79.0071 49.5182C79.0071 48.6302 79.2493 47.288 79.7338 45.4916C80.2383 43.6751 80.4906 42.5247 80.4906 42.0403C80.4906 41.2935 80.2282 40.587 79.7035 39.921L79.4613 39.588L79.5521 39.0733C80.6016 38.7503 82.6402 38.5889 85.6677 38.5889C85.9906 38.9522 86.1521 39.588 86.1521 40.4962ZM83.8815 36.2274C82.9732 36.2274 82.2567 35.9852 81.7319 35.5008C81.2273 35.0164 80.975 34.4008 80.975 33.654C80.975 32.887 81.2879 32.2513 81.9136 31.7467C82.5594 31.2219 83.3365 30.9595 84.2448 30.9595C85.153 30.9595 85.8594 31.1714 86.364 31.5953C86.8686 32.0192 87.1209 32.6146 87.1209 33.3815C87.1209 34.1485 86.8081 34.8146 86.1824 35.3797C85.5769 35.9448 84.8099 36.2274 83.8815 36.2274ZM97.9232 41.132L95.259 40.9201C95.0774 44.3311 94.6737 47.5907 94.048 50.699C93.4425 53.8072 92.837 55.7549 92.2315 56.5421C91.2223 56.5219 90.2434 56.4008 89.2948 56.1788C88.3462 55.9769 87.7003 55.7751 87.3572 55.5733C88.1242 52.9898 88.6691 50.7595 88.9921 48.8825C89.315 46.9852 89.6379 44.3714 89.9609 41.0412L87.9627 41.2531C87.882 40.8696 87.8416 40.4861 87.8416 40.1026C87.8416 39.699 87.8921 39.265 87.993 38.8008H90.1728C90.4755 35.7935 90.8994 33.765 91.4444 32.7155C92.1508 31.3228 92.9985 30.4347 93.9875 30.0513C94.593 29.7889 95.3599 29.6577 96.2884 29.6577C97.2168 29.6577 97.9939 29.9302 98.6196 30.4751C99.2655 30.9999 99.5884 31.7164 99.5884 32.6247C99.5884 33.5127 99.1746 34.5421 98.3471 35.7127C97.5196 36.8834 96.5205 37.9127 95.3499 38.8008H98.4077C98.4077 39.7091 98.2462 40.4861 97.9232 41.132ZM97.0453 31.9283C96.1976 31.9283 95.6627 33.4118 95.4407 36.3788C96.1471 35.8136 96.7122 35.198 97.1361 34.532C97.5801 33.8458 97.8021 33.2403 97.8021 32.7155C97.8021 32.1907 97.5499 31.9283 97.0453 31.9283ZM98.2558 49.3971C98.2558 48.5494 98.5182 47.1568 99.043 45.2192C99.5879 43.2815 99.8604 42.0907 99.8604 41.6467C99.8604 41.2026 99.4971 40.5568 98.7705 39.7091L98.831 39.2549C100.668 38.8513 102.817 38.6494 105.28 38.6494C105.441 38.9925 105.522 39.5375 105.522 40.2843C105.522 41.0311 105.239 42.4439 104.674 44.5228C104.129 46.6017 103.857 47.8329 103.857 48.2164C103.857 48.7412 104.109 49.0036 104.614 49.0036C104.957 49.0036 105.391 48.8724 105.915 48.61C105.976 48.287 106.158 47.4393 106.46 46.0669C107.167 43.0192 107.52 40.7384 107.52 39.2247C108.448 38.821 110.033 38.6192 112.273 38.6192H113.091C113.091 39.5274 112.818 41.3036 112.273 43.9476C111.748 46.5916 111.476 48.1155 111.456 48.5192C111.456 48.9228 111.547 49.1247 111.728 49.1247L113.212 48.7311L113.757 50.2448C113.171 50.7091 112.324 51.1531 111.214 51.5769C110.104 52.0008 109.125 52.2127 108.277 52.2127C107.026 52.2127 106.248 51.7081 105.946 50.699C104.27 51.7081 102.666 52.2127 101.132 52.2127C99.2145 52.2127 98.2558 51.2742 98.2558 49.3971ZM122.688 50.154C122.042 50.7192 121.194 51.2036 120.145 51.6072C119.095 52.0109 118.136 52.2127 117.268 52.2127C116.421 52.2127 115.724 51.9705 115.179 51.4861C114.634 50.9815 114.362 50.265 114.362 49.3366C114.362 48.4081 114.867 45.8247 115.876 41.5861C116.905 37.3274 117.42 34.1687 117.42 32.11C117.42 31.6659 117.359 31.1008 117.238 30.4146C119.135 29.8898 120.972 29.6274 122.748 29.6274C122.93 29.9503 123.021 30.4751 123.021 31.2017C123.021 32.5742 122.506 35.5714 121.477 40.1935C120.467 44.7953 119.963 47.4494 119.963 48.1558C119.963 48.8623 120.084 49.2155 120.326 49.2155C120.528 49.2155 120.962 49.0843 121.628 48.8219L121.961 48.6705L122.688 50.154ZM140.159 57.2081C139.291 57.7935 138.514 58.1769 137.827 58.3586C137.161 58.5403 136.415 58.6311 135.587 58.6311C134.78 58.6311 134.033 58.3586 133.347 57.8136C132.681 57.2687 132.348 56.6026 132.348 55.8155C132.348 55.0283 132.539 54.3522 132.923 53.787C133.327 53.2421 133.902 52.7779 134.649 52.3944C135.96 51.7081 137.615 51.1531 139.614 50.7292C139.755 50.4063 139.987 49.6696 140.31 48.5192C139.503 48.943 138.483 49.3366 137.252 49.6999C136.041 50.0632 134.961 50.2448 134.013 50.2448C133.064 50.2448 132.257 49.932 131.591 49.3063C130.945 48.6604 130.622 47.7825 130.622 46.6724C130.622 45.5421 130.985 43.5036 131.712 40.5568C132.459 37.5898 132.832 35.4705 132.832 34.199C132.832 33.8155 132.731 33.4118 132.529 32.988C132.327 32.5439 132.126 32.1907 131.924 31.9283L131.651 31.565L131.742 30.9595C132.993 30.5558 135.153 30.354 138.221 30.354C138.604 31.0201 138.796 31.9182 138.796 33.0485C138.796 34.1586 138.413 36.298 137.646 39.4669C136.879 42.6357 136.495 44.5127 136.495 45.098C136.495 46.1072 136.849 46.6118 137.555 46.6118C138.524 46.6118 139.684 46.2485 141.037 45.5219C141.703 42.6962 142.268 39.921 142.732 37.1962C143.196 34.4714 143.428 32.4935 143.428 31.2623C144.074 30.9999 144.942 30.788 146.032 30.6265C147.122 30.465 148.02 30.3843 148.727 30.3843H149.393C149.393 31.9384 148.979 34.6733 148.151 38.5889C147.849 39.9412 147.404 41.9494 146.819 44.6136C146.254 47.2577 145.598 49.4173 144.851 51.0925C144.125 52.7476 143.378 54.0292 142.611 54.9375C141.864 55.8659 141.047 56.6228 140.159 57.2081ZM134.588 55.2705C134.588 55.7146 134.881 55.9366 135.466 55.9366C136.051 55.9366 136.697 55.5935 137.404 54.9072C138.11 54.2412 138.615 53.5549 138.917 52.8485C137.747 53.0302 136.727 53.343 135.86 53.787C135.012 54.2513 134.588 54.7458 134.588 55.2705ZM154.628 52.2127C153.053 52.2127 151.812 51.7182 150.904 50.7292C149.996 49.7201 149.542 48.3072 149.542 46.4907C149.542 44.2705 150.198 42.3935 151.509 40.8595C152.821 39.3054 154.547 38.5283 156.687 38.5283L158.049 38.6494C158.533 38.5081 158.987 38.4375 159.411 38.4375C160.42 38.4375 161.137 38.7806 161.561 39.4669C162.005 40.1531 162.257 41.132 162.318 42.4036C163.165 42.3632 163.973 42.232 164.74 42.01L165.164 41.8889C165.305 42.0302 165.406 42.454 165.466 43.1604L165.497 43.4935C164.588 43.9577 163.478 44.321 162.166 44.5834C161.722 46.7228 160.844 48.5292 159.532 50.0026C158.22 51.476 156.586 52.2127 154.628 52.2127ZM155.233 46.3696C155.233 48.2467 155.708 49.1852 156.656 49.1852C157.322 49.1852 157.998 48.7614 158.685 47.9136C159.391 47.0659 159.876 46.0366 160.138 44.8256C158.079 44.8256 157.05 43.8366 157.05 41.8586C157.05 41.5155 157.08 41.1623 157.141 40.799C156.939 40.799 156.787 40.8292 156.687 40.8898C156.343 41.2531 156.01 41.9898 155.687 43.0999C155.385 44.1898 155.233 45.2797 155.233 46.3696ZM163.212 49.3971C163.212 48.5494 163.474 47.1568 163.999 45.2192C164.544 43.2815 164.816 42.0907 164.816 41.6467C164.816 41.2026 164.453 40.5568 163.726 39.7091L163.787 39.2549C165.623 38.8513 167.773 38.6494 170.235 38.6494C170.397 38.9925 170.478 39.5375 170.478 40.2843C170.478 41.0311 170.195 42.4439 169.63 44.5228C169.085 46.6017 168.812 47.8329 168.812 48.2164C168.812 48.7412 169.065 49.0036 169.569 49.0036C169.912 49.0036 170.346 48.8724 170.871 48.61C170.932 48.287 171.113 47.4393 171.416 46.0669C172.123 43.0192 172.476 40.7384 172.476 39.2247C173.404 38.821 174.989 38.6192 177.229 38.6192H178.046C178.046 39.5274 177.774 41.3036 177.229 43.9476C176.704 46.5916 176.432 48.1155 176.412 48.5192C176.412 48.9228 176.502 49.1247 176.684 49.1247L178.168 48.7311L178.712 50.2448C178.127 50.7091 177.279 51.1531 176.169 51.5769C175.059 52.0008 174.08 52.2127 173.233 52.2127C171.981 52.2127 171.204 51.7081 170.901 50.699C169.226 51.7081 167.622 52.2127 166.088 52.2127C164.17 52.2127 163.212 51.2742 163.212 49.3971ZM182.315 52.3338C181.447 52.3338 180.781 52.1118 180.317 51.6678C179.853 51.2237 179.62 50.6182 179.62 49.8513C179.62 49.0843 179.933 48.4182 180.559 47.8531C181.185 47.2678 181.931 46.9751 182.799 46.9751C183.687 46.9751 184.364 47.2173 184.828 47.7017C185.312 48.1659 185.554 48.7714 185.554 49.5182C185.554 50.265 185.231 50.921 184.586 51.4861C183.94 52.0513 183.183 52.3338 182.315 52.3338ZM188.582 31.6558C188.582 33.1292 188.098 35.5614 187.129 38.9522C186.18 42.3228 185.494 44.3714 185.07 45.098C184.444 45.3201 183.849 45.4311 183.284 45.4311C182.719 45.4311 182.234 45.3907 181.831 45.31C182.355 40.365 182.618 36.4999 182.618 33.7146L182.436 31.0806C184.656 30.3944 186.574 30.0513 188.188 30.0513C188.451 30.3742 188.582 30.9091 188.582 31.6558Z" fill="#FDFFFC"/>
</g>
<defs>
<filter id="filter0_d" x="1" y="0.0958557" width="82" height="74.9223" filterUnits="userSpaceOnUse" color-interpolation-filters="sRGB">
<feFlood flood-opacity="0" result="BackgroundImageFix"/>
<feColorMatrix in="SourceAlpha" type="matrix" values="0 0 0 0 0 0 0 0 0 0 0 0 0 0 0 0 0 0 127 0"/>
<feOffset dx="2" dy="4"/>
<feGaussianBlur stdDeviation="2"/>
<feColorMatrix type="matrix" values="0 0 0 0 0 0 0 0 0 0 0 0 0 0 0 0 0 0 0.28 0"/>
<feBlend mode="normal" in2="BackgroundImageFix" result="effect1_dropShadow"/>
<feBlend mode="normal" in="SourceGraphic" in2="effect1_dropShadow" result="shape"/>
</filter>
<filter id="filter1_d" x="16.2684" y="18.0656" width="90.8133" height="28.659" filterUnits="userSpaceOnUse" color-interpolation-filters="sRGB">
<feFlood flood-opacity="0" result="BackgroundImageFix"/>
<feColorMatrix in="SourceAlpha" type="matrix" values="0 0 0 0 0 0 0 0 0 0 0 0 0 0 0 0 0 0 127 0"/>
<feOffset dy="4.95238"/>
<feGaussianBlur stdDeviation="2.47619"/>
<feColorMatrix type="matrix" values="0 0 0 0 0 0 0 0 0 0 0 0 0 0 0 0 0 0 0.25 0"/>
<feBlend mode="normal" in2="BackgroundImageFix" result="effect1_dropShadow"/>
<feBlend mode="normal" in="SourceGraphic" in2="effect1_dropShadow" result="shape"/>
</filter>
<filter id="filter2_d" x="0.241272" y="29.6274" width="192.341" height="37.0037" filterUnits="userSpaceOnUse" color-interpolation-filters="sRGB">
<feFlood flood-opacity="0" result="BackgroundImageFix"/>
<feColorMatrix in="SourceAlpha" type="matrix" values="0 0 0 0 0 0 0 0 0 0 0 0 0 0 0 0 0 0 127 0"/>
<feOffset dy="4"/>
<feGaussianBlur stdDeviation="2"/>
<feColorMatrix type="matrix" values="0 0 0 0 0 0 0 0 0 0 0 0 0 0 0 0 0 0 0.25 0"/>
<feBlend mode="normal" in2="BackgroundImageFix" result="effect1_dropShadow"/>
<feBlend mode="normal" in="SourceGraphic" in2="effect1_dropShadow" result="shape"/>
</filter>
</defs>
</svg>
